<svg id="LUDO" xmlns="http://www.w3.org/2000/svg" xmlns:xlink="http://www.w3.org/1999/xlink" width="401" height="276" viewBox="0 0 401 276">
  <defs>
    <style>
      .cls-1 {
        fill: #10171d;
      }

      .cls-1, .cls-10, .cls-11, .cls-2, .cls-3, .cls-4, .cls-5, .cls-6, .cls-7, .cls-8, .cls-9 {
        fill-rule: evenodd;
      }

      .cls-2 {
        fill: #338ad4;
      }

      .cls-3 {
        fill: #3e9ded;
      }

      .cls-4 {
        fill: #e42328;
      }

      .cls-5 {
        fill: #ff373c;
      }

      .cls-6 {
        fill: #c3ccd2;
      }

      .cls-7 {
        fill: #f3f3f3;
      }

      .cls-8 {
        fill: url(#linear-gradient);
      }

      .cls-9 {
        fill: #1e1b23;
      }

      .cls-10 {
        fill: url(#linear-gradient-2);
      }

      .cls-11 {
        fill: #ffc90c;
      }
    </style>
    <linearGradient id="linear-gradient" x1="322.74" y1="163.656" x2="221.541" y2="69.188" gradientUnits="userSpaceOnUse">
      <stop offset="0" stop-color="#e9e2e2"/>
      <stop offset="1" stop-color="#a6b2ba"/>
    </linearGradient>
    <linearGradient id="linear-gradient-2" x1="199" y1="247.125" x2="199" y2="164.531" gradientUnits="userSpaceOnUse">
      <stop offset="0" stop-color="#895700"/>
      <stop offset="0.482" stop-color="#ce891b"/>
      <stop offset="1" stop-color="#84560d"/>
    </linearGradient>
  </defs>
  <path id="Shape_18_copy" data-name="Shape 18 copy" class="cls-1" d="M131.384,152.744l9.408-43.638S127.87,96.926,127.856,81.98c-0.041-44.883,45.862-33.023,45.862-33.023,0.043-.068-4.095-37.31,37.63-38.92S251.331,46.6,251.331,46.6s20.415-11.552,39.982-5.9c27.351,7.905,51.132,37.017,49.39,73.123-1.144,23.713-36.845,85.407-79.965,74.3C239.388,182.626,131.384,152.744,131.384,152.744Z"/>
  <path id="Shape_17_copy_2" data-name="Shape 17 copy 2" class="cls-1" d="M90.627,155.063c7.649-2.484,8.5-6.917,25.04-9.166s26.839,6.633,37.561,4.583c3.362-.643,9.855-3.6,13.658-4.583,7.6-1.963,16.808,1.119,21.626,2.292,4.858,1.182,6.644-2.1,11.382-2.292s18.971,0,28.455,0c16.721,0,31.1.941,42.113,6.875,2.691,1.449,9.378,8.989,11.382,6.874,6.013-3.171,11.473-8.083,18.211-10.312,34.93-11.552,60.484,6.434,73.983,27.5,4.695,7.326,11.588,23.295,7.967,37.81-5.092,20.415-17.464,36.168-35.284,43.54-21.156,8.751-55.74,4.022-66.015-11.458-10.681,6.34-19.526,11.124-34.146,14.9-30.674,5.946-55.751-3.2-63.739-6.875-1.795-.484-23.05,6.946-27.317,8.021-14.832,3.735-32.514-3.712-40.975-8.021-1.647-.838-3.512,3.7-13.659,6.875-40.583,12.684-106-2.292-76.259-43.539V194.019c-10.481-6.811-13.188-18.1-4.23-32.807S70.047,132.672,90.627,155.063Z"/>
  <path id="_2_copy_7" data-name="2 copy 7" class="cls-2" d="M222.879,76.667l20.23,64.548s-22.481,7.557-39.05,8-35.027-8.2-35.027-8.2L194.8,73.654A28.528,28.528,0,0,1,182.186,51.47c-0.825-16.038,11.83-29.819,28.267-30.781s30.431,11.26,31.257,27.3A29.4,29.4,0,0,1,222.879,76.667Z"/>
  <path id="Ellipse_2_copy_3" data-name="Ellipse 2 copy 3" class="cls-3" d="M202.87,23.754C212.985,21.5,222.6,25.986,224.355,33.78s-5.028,15.943-15.143,18.2-19.734-2.232-21.485-10.027S192.756,26.011,202.87,23.754Z"/>
  <path id="_2_copy_2" data-name="2 copy 2" class="cls-4" d="M174.444,101.568l26.61,48.889s-16.49,9.561-29.49,12.476-28.988-1.2-28.988-1.2l9.22-58.26A23.969,23.969,0,1,1,174.444,101.568Z"/>
  <path id="Ellipse_2_copy_3-2" data-name="Ellipse 2 copy 3" class="cls-5" d="M155.1,58.955c9.37-2.251,18.348,1.708,20.052,8.842s-4.51,14.743-13.881,16.995-18.347-1.708-20.051-8.842S145.734,61.206,155.1,58.955Z"/>
  <path id="Ellipse_10_copy_14" data-name="Ellipse 10 copy 14" class="cls-6" d="M252.677,160.379c-6.906-3.905-14.787-5.966-26.008-21.695s-17.751-31.711-12.046-45.892,14.885-23.962,30.95-32.655,31.821-11.623,34.672-11.158,19.669,2.629,31.526,14.528,20.616,36.5,19.426,49.475-9.71,26.836-19.37,34.626c-6.249,5.039-23.121,15.458-37.706,17.761C266.161,166.624,259.583,164.284,252.677,160.379Z"/>
  <path id="Ellipse_10_copy_28" data-name="Ellipse 10 copy 28" class="cls-7" d="M277.4,52.049c6.405,4.656-2.986,19.867-22.368,32.835-19.743,13.209-36.177,15.1-37.15,7.026-0.9-7.461,10.551-20.18,24.321-29.408C255.844,53.362,271.561,47.8,277.4,52.049Z"/>
  <path id="Ellipse_10_copy_25" data-name="Ellipse 10 copy 25" class="cls-8" d="M218.61,108.283c4.472-9.339,21.891-4.227,37.795,13.5,16.2,18.057,19.781,36.633,11.085,40.92-8.034,3.967-22.932-4.54-34.248-17.128C222.035,133.109,214.532,116.8,218.61,108.283ZM278.258,78.06c13.171-14.4,34.334-11.384,44.17,9.979,10.019,21.761,1.638,47.352-13.894,55.59-14.356,7.621-29.453-.853-36.469-16.017C265.115,112.593,266.245,91.2,278.258,78.06Z"/>
  <path id="Ellipse_10_copy_14-2" data-name="Ellipse 10 copy 14" class="cls-9" d="M300.6,126.92c2.888-1.894,6.177-.485,7.347,3.146s-0.223,8.111-3.11,10-6.177.485-7.347-3.146S297.707,128.814,300.6,126.92ZM250.95,73.585c3.286-1.377,4.391-.733,2.468,1.439a30.707,30.707,0,0,1-9.431,6.426c-3.286,1.377-4.391.733-2.468-1.439A30.691,30.691,0,0,1,250.95,73.585Zm13.155-10.872c3.285-1.377,4.39-.733,2.467,1.439a30.688,30.688,0,0,1-9.431,6.426c-3.286,1.377-4.391.733-2.468-1.439A30.691,30.691,0,0,1,264.105,62.713ZM274.3,53.169c3.286-1.377,4.391-.733,2.468,1.439a30.7,30.7,0,0,1-9.431,6.426c-3.286,1.377-4.391.733-2.468-1.439A30.7,30.7,0,0,1,274.3,53.169ZM230.16,76.229c3.055-1.222,4.1-.612,2.33,1.362a27.538,27.538,0,0,1-8.732,5.785c-3.055,1.221-4.1.612-2.33-1.362A27.537,27.537,0,0,1,230.16,76.229Zm11.8-9.754c2.754-1.2,3.668-.669,2.041,1.188A26.559,26.559,0,0,1,236.07,73.2c-2.754,1.2-3.668.669-2.041-1.187A26.557,26.557,0,0,1,241.964,66.475Zm12.2-9.342c2.754-1.2,3.668-.669,2.041,1.188a26.557,26.557,0,0,1-7.935,5.535c-2.754,1.2-3.668.669-2.041-1.188A26.564,26.564,0,0,1,254.168,57.133Zm-5.285,63.531c1.049,3.133-.51,4.923-3.484,4a12.759,12.759,0,0,1-7.283-7.349c-1.049-3.134.511-4.923,3.484-4A12.766,12.766,0,0,1,248.883,120.664Zm-1.756,14.856c1.049,3.133-.511,4.923-3.485,4a12.764,12.764,0,0,1-7.283-7.35c-1.049-3.133.511-4.923,3.485-4A12.764,12.764,0,0,1,247.127,135.52Zm-0.04,13.809c1.049,3.133-.511,4.923-3.484,4a12.766,12.766,0,0,1-7.283-7.35c-1.049-3.133.511-4.923,3.484-4A12.761,12.761,0,0,1,247.087,149.329Zm54.9-71.415c2.888-1.894,6.177-.485,7.347,3.146s-0.223,8.111-3.11,10-6.177.485-7.347-3.146S299.1,79.808,301.985,77.914Z"/>
  <path id="LUDO_copy_5" data-name="LUDO copy 5" class="cls-10" d="M76.437,245.527a35.1,35.1,0,0,1,8.038.793,29.14,29.14,0,0,0,5.358.793c4.93,0,10.931-11.328,10.931-20.163,0-2.96,2.151-13.342.045-15.237-0.956-.861-2.02,0-3.527,0-6.859,0-3.8,21.24-22.023,21.24-7.609,0-8.895-3.964-8.895-12.12V184.812c0-10.648,8.466-5.664,8.466-12.234,0-3.851-1.072-7.7-22.5-7.7-5.251,0-22.076.453-22.076,8.722,0,6.456,9.431,1.472,9.645,10.987,0.214,6.344.75,12.687,0.75,19.483,0,6.684,0,13.933-.214,22.2-0.322,13.14-8.681,7.25-8.681,14.273,0,5.21,5.465,4.984,8.895,4.984H76.437Zm90.992-31.6c0,1.246.75,16.085-16.183,16.085-11.359,0-16.182-8.609-16.182-22.088V187.077c0.536-13.819,8.359-6.23,8.359-14.385,0-4.418-3.536-7.816-21-7.816-22.077,0-20.9,6.343-20.9,7.929,0,5.21,7.287,5.21,6.859,12.347v26.166c0,1.359-4.716,35.795,37.508,35.795,37.08,0,36.973-27.186,36.973-32.283V184.245c0-10.307,8.037-6.456,8.037-12.8,0-6.569-11.788-6.569-15.861-6.569-4.393,0-16.825-.227-16.825,6.8,0,6.57,9.217,1.926,9.217,14.046v28.205ZM202.7,224.005c-0.112,5.731-2.906,4.035-4.283,5.4-2.595,2.573-4.505,4.9-4.505,10.233,0,4.531,4.608,6.456,8.252,6.456,3.108,0,6.109-.113,9.109-0.34,3-.113,6.109-0.226,9.109-0.226s5.9,0.113,9.217.226c3.322,0.227,7.18.34,11.788,0.34,27.113,0,38.794-19.823,38.794-40.892,0-20.389-9.752-39.872-39.544-39.872H205.7c-3.751,0-9.967.793-9.967,6,0,7.363,8.038,1.7,7.823,13.367Zm26.577-40.1c0-4.305.322-6.23,4.823-6.23,8.252,0,17.682,4.191,17.682,30.7,0,11.327-2.357,25.94-15.86,25.94-5.787,0-6.645-2.379-6.645-8.156V183.906Zm96.244,63.207c21.862,0,42.224-16.085,42.224-40.439,0-14.613-11.36-42.138-40.938-42.138-23.363,0-41.474,16.991-41.474,41.005C285.329,229.668,302.9,247.113,325.517,247.113Zm14.682-29c0,6.116-2.787,12.12-9.324,12.12-11.574,0-18-27.073-18-36.7,0-5.55,3-12.12,9-12.12C334.412,181.414,340.2,207.807,340.2,218.115Z"/>
  <path id="LUDO_copy_5-2" data-name="LUDO copy 5" class="cls-11" d="M82.4,237.059a36.182,36.182,0,0,1,7.857.734,30.043,30.043,0,0,0,5.238.733c4.819,0,10.686-10.474,10.686-18.643,0-3.98-1.781-9.007-6.5-9.007-6.7,0-.629,14.558-18.438,14.558-7.438,0-8.7-3.666-8.7-11.207V180.921c0-9.845,8.276-5.237,8.276-11.311,0-3.561-1.048-7.122-22-7.122-5.133,0-21.581.419-21.581,8.064,0,5.97,9.219,1.362,9.429,10.16,0.21,5.865.733,11.73,0.733,18.014,0,6.18,0,12.883-.21,20.528-0.314,12.15-8.486,6.7-8.486,13.2,0,4.818,5.343,4.608,8.7,4.608H82.4Zm88.949-29.221c0,1.152.733,14.873-15.819,14.873-11.1,0-15.819-7.96-15.819-20.424V183.016c0.524-12.778,8.171-5.761,8.171-13.3,0-4.084-3.457-7.226-20.533-7.226-21.581,0-20.428,5.865-20.428,7.331,0,4.818,7.123,4.818,6.7,11.416v24.194c0,1.257-4.609,33.1,36.667,33.1,36.247,0,36.142-25.137,36.142-29.85V180.4c0-9.531,7.857-5.969,7.857-11.835,0-6.074-11.523-6.074-15.5-6.074-4.3,0-16.448-.21-16.448,6.284,0,6.074,9.01,1.78,9.01,12.987v26.079Zm34.475,9.322c-0.314,15.291-8.59,6.912-8.59,14.453,0,4.19,4.5,5.97,8.066,5.97,3.039,0,5.972-.1,8.905-0.314,2.933-.105,5.972-0.21,8.905-0.21s5.762,0.1,9.009.21c3.248,0.209,7.019.314,11.524,0.314,26.5,0,37.924-18.329,37.924-37.809,0-18.853-9.534-36.867-38.657-36.867H208.762c-3.667,0-9.743.733-9.743,5.551,0,6.807,7.857,1.571,7.647,12.358Zm25.981-37.077c0-3.98.314-5.76,4.714-5.76,8.067,0,17.286,3.875,17.286,28.383,0,10.474-2.305,23.985-15.5,23.985-5.657,0-6.5-2.2-6.5-7.541V180.083Zm94.083,58.443c21.371,0,41.276-14.873,41.276-37.391,0-13.511-11.105-38.962-40.019-38.962-22.838,0-40.542,15.711-40.542,37.915C286.607,222.4,303.788,238.526,325.892,238.526Zm14.353-26.813c0,5.656-2.724,11.207-9.115,11.207-11.314,0-17.6-25.032-17.6-33.934,0-5.132,2.934-11.207,8.8-11.207C334.587,177.779,340.245,202.182,340.245,211.713Z"/>
</svg>
